# Blender 4.0.1
# www.blender.org
mtllib tetra.mtl
o Sphere.004
v 0.750000 -0.000000 0.433013
v -0.750000 -0.000000 0.433013
v 0.000000 1.200000 0.000000
v 0.562500 -0.000000 0.433013
v 0.375000 -0.000000 0.433013
v 0.187500 -0.000000 0.433013
v -0.000000 -0.000000 0.433013
v -0.187500 -0.000000 0.433013
v -0.375000 -0.000000 0.433013
v -0.562500 -0.000000 0.433013
v 0.093750 1.050000 0.054127
v 0.187500 0.900000 0.108253
v 0.281250 0.750000 0.162380
v 0.375000 0.600000 0.216506
v 0.468750 0.450000 0.270633
v 0.562500 0.300000 0.324760
v 0.656250 0.150000 0.378886
v -0.093750 1.050000 0.054127
v -0.187500 0.900000 0.108253
v -0.281250 0.750000 0.162380
v -0.375000 0.600000 0.216506
v -0.468750 0.450000 0.270633
v -0.562500 0.300000 0.324759
v -0.656250 0.150000 0.378886
v 0.490512 0.138393 0.383074
v 0.416512 0.273868 0.334189
v 0.342568 0.408455 0.285624
v 0.270957 0.544510 0.236530
v 0.326504 0.129856 0.386155
v 0.209159 0.286410 0.329663
v 0.241517 0.400000 0.288675
v 0.209159 0.513589 0.247687
v 0.163357 0.121717 0.389092
v 0.120758 0.203257 0.359668
v -0.000000 0.923213 0.099877
v -0.090007 0.796275 0.145682
v -0.179211 0.669827 0.191310
v -0.270957 0.544510 0.236529
v 0.090007 0.796275 0.145682
v -0.000000 0.627179 0.206699
v -0.120758 0.596742 0.217682
v -0.209160 0.513589 0.247687
v 0.179211 0.669827 0.191310
v 0.120758 0.596742 0.217682
v -0.490512 0.138393 0.383074
v -0.326504 0.129856 0.386155
v -0.163357 0.121717 0.389092
v -0.000000 0.110980 0.392966
v -0.416512 0.273868 0.334189
v -0.209160 0.286410 0.329663
v -0.120758 0.203257 0.359668
v -0.000000 0.172821 0.370651
v -0.342568 0.408455 0.285624
v -0.241517 0.400000 0.288675
v -0.750000 -0.000000 0.433013
v 0.000000 1.200000 0.000000
v 0.000000 -0.000000 -0.866025
v 0.000000 1.050000 -0.108253
v 0.000000 0.900000 -0.216506
v 0.000000 0.750000 -0.324760
v 0.000000 0.600000 -0.433013
v 0.000000 0.450000 -0.541266
v 0.000000 0.300000 -0.649519
v 0.000000 0.150000 -0.757772
v -0.656250 -0.000000 0.270633
v -0.562500 -0.000000 0.108253
v -0.468750 -0.000000 -0.054127
v -0.375000 -0.000000 -0.216506
v -0.281250 -0.000000 -0.378886
v -0.187500 -0.000000 -0.541266
v -0.093750 -0.000000 -0.703646
v -0.093750 1.050000 0.054127
v -0.187500 0.900000 0.108253
v -0.281250 0.750000 0.162380
v -0.375000 0.600000 0.216506
v -0.468750 0.450000 0.270633
v -0.562500 0.300000 0.324759
v -0.656250 0.150000 0.378886
v -0.577008 0.138393 0.233259
v -0.497672 0.273868 0.193615
v -0.418642 0.408455 0.153861
v -0.340319 0.544510 0.116390
v -0.497672 0.129856 0.089683
v -0.390076 0.286410 0.016306
v -0.370758 0.400000 0.064822
v -0.319083 0.513589 0.057294
v -0.418642 0.121717 -0.053075
v -0.371861 0.203257 -0.075255
v -0.086496 0.923213 -0.049938
v -0.081160 0.796275 -0.150790
v -0.076073 0.669827 -0.250857
v -0.069362 0.544510 -0.352920
v -0.171168 0.796275 0.005108
v -0.179007 0.627178 -0.103350
v -0.128139 0.596742 -0.213421
v -0.109924 0.513589 -0.304981
v -0.255285 0.669827 0.059547
v -0.248897 0.596742 -0.004261
v -0.086496 0.138393 -0.616333
v -0.171168 0.129856 -0.475838
v -0.255285 0.121717 -0.336017
v -0.340319 0.110979 -0.196483
v -0.081160 0.273868 -0.527804
v -0.180917 0.286410 -0.345969
v -0.251103 0.203257 -0.284414
v -0.320993 0.172821 -0.185326
v -0.076073 0.408455 -0.439485
v -0.129242 0.400000 -0.353497
v 0.750000 -0.000000 0.433013
v 0.000000 1.200000 0.000000
v 0.000000 -0.000000 -0.866025
v 0.000000 1.050000 -0.108253
v 0.000000 0.900000 -0.216506
v 0.000000 0.750000 -0.324760
v 0.000000 0.600000 -0.433013
v 0.000000 0.450000 -0.541266
v 0.000000 0.300000 -0.649519
v 0.000000 0.150000 -0.757772
v 0.093750 1.050000 0.054127
v 0.187500 0.900000 0.108253
v 0.281250 0.750000 0.162380
v 0.375000 0.600000 0.216506
v 0.468750 0.450000 0.270633
v 0.562500 0.300000 0.324760
v 0.656250 0.150000 0.378886
v 0.093750 -0.000000 -0.703646
v 0.187500 -0.000000 -0.541266
v 0.281250 -0.000000 -0.378886
v 0.375000 -0.000000 -0.216506
v 0.468750 -0.000000 -0.054127
v 0.562500 -0.000000 0.108253
v 0.656250 -0.000000 0.270633
v 0.086496 0.138393 -0.616333
v 0.081160 0.273868 -0.527804
v 0.076073 0.408455 -0.439485
v 0.069362 0.544510 -0.352920
v 0.171168 0.129856 -0.475838
v 0.180917 0.286410 -0.345969
v 0.129242 0.400000 -0.353497
v 0.109924 0.513589 -0.304981
v 0.255285 0.121717 -0.336017
v 0.251103 0.203257 -0.284414
v 0.086496 0.923213 -0.049938
v 0.171168 0.796275 0.005108
v 0.255285 0.669827 0.059547
v 0.340319 0.544510 0.116391
v 0.081160 0.796275 -0.150790
v 0.179007 0.627178 -0.103350
v 0.248897 0.596742 -0.004261
v 0.319083 0.513589 0.057294
v 0.076073 0.669827 -0.250857
v 0.128139 0.596742 -0.213421
v 0.577008 0.138393 0.233259
v 0.497672 0.129856 0.089684
v 0.418642 0.121717 -0.053075
v 0.340319 0.110979 -0.196483
v 0.497672 0.273868 0.193615
v 0.390077 0.286410 0.016306
v 0.371861 0.203257 -0.075254
v 0.320993 0.172821 -0.185326
v 0.418642 0.408455 0.153861
v 0.370758 0.400000 0.064822
v 0.180917 0.286410 -0.345969
v 0.129242 0.400000 -0.353497
v 0.109924 0.513589 -0.304981
v 0.251103 0.203257 -0.284414
v 0.179007 0.627178 -0.103350
v 0.248897 0.596742 -0.004261
v 0.319083 0.513589 0.057294
v 0.128139 0.596742 -0.213421
v 0.390077 0.286410 0.016306
v 0.371861 0.203257 -0.075254
v 0.320993 0.172821 -0.185326
v 0.370758 0.400000 0.064822
v 0.211048 -0.000000 0.121848
v 0.121848 -0.000000 0.211048
v 0.000000 -0.000000 0.243697
v 0.243697 -0.000000 -0.000000
v -0.211048 -0.000000 0.121848
v -0.243697 -0.000000 -0.000000
v -0.211048 -0.000000 -0.121848
v -0.121848 -0.000000 0.211048
v 0.000000 -0.000000 -0.243697
v 0.121848 -0.000000 -0.211048
v 0.211048 -0.000000 -0.121848
v -0.121848 -0.000000 -0.211048
v 0.209159 0.286410 0.329663
v 0.241517 0.400000 0.288675
v 0.209159 0.513589 0.247687
v 0.120758 0.203257 0.359668
v -0.000000 0.627179 0.206699
v -0.120758 0.596742 0.217682
v -0.209160 0.513589 0.247687
v 0.120758 0.596742 0.217682
v -0.209160 0.286410 0.329663
v -0.120758 0.203257 0.359668
v -0.000000 0.172821 0.370651
v -0.241517 0.400000 0.288675
v -0.390076 0.286410 0.016306
v -0.370758 0.400000 0.064822
v -0.319083 0.513589 0.057294
v -0.371861 0.203257 -0.075255
v -0.179007 0.627178 -0.103350
v -0.128139 0.596742 -0.213421
v -0.109924 0.513589 -0.304981
v -0.248897 0.596742 -0.004261
v -0.180917 0.286410 -0.345969
v -0.251103 0.203257 -0.284414
v -0.320993 0.172821 -0.185326
v -0.129242 0.400000 -0.353497
v 0.750000 -0.000000 0.433013
v -0.750000 -0.000000 0.433013
v 0.000000 -0.000000 -0.866025
v 0.562500 -0.000000 0.433013
v 0.375000 -0.000000 0.433013
v 0.187500 -0.000000 0.433013
v -0.000000 -0.000000 0.433013
v -0.187500 -0.000000 0.433013
v -0.375000 -0.000000 0.433013
v -0.562500 -0.000000 0.433013
v -0.656250 -0.000000 0.270633
v -0.562500 -0.000000 0.108253
v -0.468750 -0.000000 -0.054127
v -0.375000 -0.000000 -0.216506
v -0.281250 -0.000000 -0.378886
v -0.187500 -0.000000 -0.541266
v -0.093750 -0.000000 -0.703646
v 0.093750 -0.000000 -0.703646
v 0.187500 -0.000000 -0.541266
v 0.281250 -0.000000 -0.378886
v 0.375000 -0.000000 -0.216506
v 0.468750 -0.000000 -0.054127
v 0.562500 -0.000000 0.108253
v 0.656250 -0.000000 0.270633
v 0.490512 -0.000000 0.283197
v 0.326504 -0.000000 0.292439
v 0.163357 -0.000000 0.301250
v -0.000000 -0.000000 0.312874
v 0.416512 -0.000000 0.136541
v 0.211048 -0.000000 0.121848
v 0.121848 -0.000000 0.211048
v 0.000000 -0.000000 0.243697
v 0.342568 -0.000000 -0.009154
v 0.243697 -0.000000 -0.000000
v -0.490512 -0.000000 0.283197
v -0.416512 -0.000000 0.136541
v -0.342568 -0.000000 -0.009154
v -0.270957 -0.000000 -0.156437
v -0.326504 -0.000000 0.292439
v -0.211048 -0.000000 0.121848
v -0.243697 -0.000000 -0.000000
v -0.211048 -0.000000 -0.121848
v -0.163357 -0.000000 0.301250
v -0.121848 -0.000000 0.211048
v 0.000000 -0.000000 -0.566395
v 0.090008 -0.000000 -0.428980
v 0.179212 -0.000000 -0.292096
v 0.270957 -0.000000 -0.156437
v -0.090007 -0.000000 -0.428980
v 0.000000 -0.000000 -0.243697
v 0.121848 -0.000000 -0.211048
v 0.211048 -0.000000 -0.121848
v -0.179211 -0.000000 -0.292096
v -0.121848 -0.000000 -0.211048
vn -0.0000 0.3394 0.9406
vn -0.8146 0.3394 -0.4703
vn 0.8146 0.3394 -0.4703
vn -0.0000 -1.0000 -0.0000
vt 0.956737 0.571763
vt 0.996221 0.526620
vt 1.026212 0.532815
vt 0.887629 0.610446
vt 0.936498 0.562356
vt 0.818408 0.649620
vt 0.878004 0.597105
vt 0.966246 0.520562
vt 0.643767 0.717043
vt 0.680447 0.721036
vt 0.611138 0.757071
vt 0.676363 0.677180
vt 0.703081 0.688466
vt 0.707987 0.637600
vt 0.725855 0.656361
vt 0.749396 0.685130
vt 0.863163 0.512135
vt 0.786998 0.553286
vt 0.826316 0.511055
vt 0.899674 0.513316
vt 0.824087 0.550119
vt 0.937272 0.513722
vt 0.859807 0.547476
vt 0.748024 0.595249
vt 0.761205 0.660209
vt 0.786405 0.587134
vt 0.916056 0.553599
vt 1.055323 0.539969
vt 1.096449 0.492949
vt 1.134655 0.497108
vt 0.975991 0.582830
vt 0.896659 0.625692
vt 0.817327 0.668553
vt 1.058244 0.488790
vt 1.020038 0.484631
vt 0.981833 0.480472
vt 0.541127 0.792978
vt 0.579332 0.797137
vt 0.500000 0.839998
vt 0.582253 0.745957
vt 0.623379 0.698937
vt 0.664506 0.651917
vt 0.658664 0.754275
vt 0.737996 0.711414
vt 0.867217 0.467995
vt 0.787885 0.510856
vt 0.829011 0.463836
vt 0.905422 0.472154
vt 0.943627 0.476313
vt 0.746759 0.557877
vt 0.705632 0.604897
vt 0.256817 0.901241
vt 0.256729 0.899454
vt 0.257669 0.900154
vt 0.255967 0.902318
vt 0.256052 0.900502
vt 0.255127 0.903419
vt 0.255383 0.901517
vt 0.255793 0.898761
vt 0.252227 0.904601
vt 0.253288 0.905275
vt 0.252367 0.906216
vt 0.252090 0.902994
vt 0.253071 0.903911
vt 0.251935 0.901389
vt 0.252870 0.902572
vt 0.254202 0.904337
vt 0.252882 0.897007
vt 0.251909 0.898120
vt 0.251889 0.896479
vt 0.253868 0.897537
vt 0.252802 0.898436
vt 0.254863 0.898041
vt 0.253673 0.898760
vt 0.251931 0.899751
vt 0.253892 0.903222
vt 0.252735 0.899832
vt 0.255299 0.899795
vt 0.258610 0.900892
vt 0.258518 0.899031
vt 0.259623 0.899734
vt 0.257596 0.902051
vt 0.256583 0.903209
vt 0.255570 0.904368
vt 0.257414 0.898329
vt 0.256309 0.897626
vt 0.255205 0.896924
vt 0.251425 0.907141
vt 0.252530 0.907843
vt 0.251517 0.909002
vt 0.251334 0.905280
vt 0.251243 0.903419
vt 0.251151 0.901558
vt 0.253543 0.906685
vt 0.254557 0.905526
vt 0.251891 0.894816
vt 0.250877 0.895975
vt 0.250786 0.894114
vt 0.252995 0.895519
vt 0.254100 0.896221
vt 0.250969 0.897836
vt 0.251060 0.899697
vt 0.346860 0.967624
vt 0.345224 0.966089
vt 0.346646 0.965149
vt 0.347069 0.970086
vt 0.345556 0.968230
vt 0.347306 0.972555
vt 0.345865 0.970325
vt 0.343812 0.967030
vt 0.345838 0.978607
vt 0.347341 0.977437
vt 0.347369 0.979891
vt 0.344317 0.977325
vt 0.345963 0.976520
vt 0.342782 0.976077
vt 0.344621 0.975601
vt 0.347310 0.974996
vt 0.339773 0.970334
vt 0.339905 0.973039
vt 0.338456 0.971525
vt 0.341085 0.969153
vt 0.340951 0.971815
vt 0.342382 0.967933
vt 0.341985 0.970640
vt 0.341349 0.974539
vt 0.346069 0.974473
vt 0.342113 0.973247
vt 0.344289 0.968845
vt 0.348101 0.964242
vt 0.346397 0.962644
vt 0.347962 0.961425
vt 0.348239 0.967060
vt 0.348377 0.969878
vt 0.348515 0.972695
vt 0.344832 0.963862
vt 0.343266 0.965081
vt 0.341701 0.966300
vt 0.347365 0.982367
vt 0.348930 0.981148
vt 0.349068 0.983965
vt 0.345661 0.980768
vt 0.343958 0.979169
vt 0.342254 0.977570
vt 0.348792 0.978330
vt 0.348654 0.975513
vt 0.337005 0.969956
vt 0.337143 0.972773
vt 0.335440 0.971175
vt 0.338571 0.968737
vt 0.340136 0.967518
vt 0.338847 0.974372
vt 0.340551 0.975971
vt 0.221000 0.968000
vt 0.215943 0.966432
vt 0.218725 0.960807
vt 0.241712 0.960571
vt 0.234902 0.957129
vt 0.242416 0.959605
vt 0.237286 0.971560
vt 0.238488 0.968076
vt 0.244669 0.966477
vt 0.229429 0.968948
vt 0.227191 0.962389
vt 0.232152 0.962316
vt 0.347366 0.911668
vt 0.350233 0.913491
vt 0.345383 0.911541
vt 0.349349 0.911798
vt 0.351546 0.913413
vt 0.351261 0.911894
vt 0.352876 0.913359
vt 0.355057 0.915428
vt 0.361537 0.914721
vt 0.356228 0.912632
vt 0.358696 0.912991
vt 0.364354 0.916440
vt 0.359033 0.914228
vt 0.367245 0.918182
vt 0.361739 0.915780
vt 0.353783 0.912281
vt 0.369493 0.921069
vt 0.371936 0.921335
vt 0.374318 0.922926
vt 0.364693 0.919219
vt 0.367818 0.919816
vt 0.359891 0.917382
vt 0.363781 0.918319
vt 0.369557 0.919749
vt 0.356622 0.913766
vt 0.366135 0.918575
vt 0.355639 0.915116
vt 0.340477 0.909555
vt 0.343463 0.911454
vt 0.337933 0.909278
vt 0.343022 0.909832
vt 0.345566 0.910109
vt 0.348111 0.910386
vt 0.348993 0.913630
vt 0.354524 0.915806
vt 0.360054 0.917982
vt 0.361274 0.913393
vt 0.355744 0.911217
vt 0.358289 0.911494
vt 0.364260 0.915292
vt 0.367246 0.917191
vt 0.370232 0.919090
vt 0.353200 0.910940
vt 0.350655 0.910663
vt 0.376645 0.924509
vt 0.379190 0.924786
vt 0.382175 0.926685
vt 0.371115 0.922333
vt 0.365584 0.920158
vt 0.376204 0.922887
vt 0.373218 0.920989
vt 0.819398 0.632282
vt 0.747805 0.624488
vt 0.896463 0.544172
vt 0.254722 0.902551
vt 0.252652 0.901235
vt 0.254551 0.899064
vt 0.346199 0.972426
vt 0.343266 0.974709
vt 0.343006 0.969430
vt 0.220345 0.960020
vt 0.220740 0.962698
vt 0.221166 0.965383
vt 0.220865 0.970615
vt 0.219149 0.969441
vt 0.217417 0.968302
vt 0.214459 0.964603
vt 0.215780 0.963100
vt 0.217086 0.961554
vt 0.245345 0.960824
vt 0.244393 0.960863
vt 0.243484 0.960924
vt 0.239986 0.960240
vt 0.238049 0.959130
vt 0.236066 0.958005
vt 0.233697 0.956241
vt 0.236587 0.957312
vt 0.239479 0.958377
vt 0.245643 0.966895
vt 0.242855 0.968551
vt 0.240060 0.970228
vt 0.234515 0.972907
vt 0.235601 0.971376
vt 0.236647 0.969857
vt 0.240284 0.966311
vt 0.241987 0.966185
vt 0.243735 0.966028
vt 0.233610 0.963685
vt 0.232316 0.965648
vt 0.231036 0.967649
vt 0.227841 0.970281
vt 0.227451 0.967690
vt 0.227031 0.965102
vt 0.227321 0.959686
vt 0.229005 0.960315
vt 0.230705 0.960901
vt 0.354146 0.913274
vt 0.364509 0.917351
vt 0.359741 0.916832
s 0
usemtl Material.007
f 26/1/1 29/2/1 25/3/1
f 27/4/1 30/5/1 26/1/1
f 28/6/1 31/7/1 27/4/1
f 30/5/1 33/8/1 29/2/1
f 36/9/1 39/10/1 35/11/1
f 37/12/1 40/13/1 36/9/1
f 38/14/1 41/15/1 37/12/1
f 40/13/1 43/16/1 39/10/1
f 46/17/1 49/18/1 45/19/1
f 47/20/1 50/21/1 46/17/1
f 48/22/1 51/23/1 47/20/1
f 50/21/1 53/24/1 49/18/1
f 44/25/1 28/6/1 43/16/1
f 54/26/1 38/14/1 53/24/1
f 34/27/1 48/22/1 33/8/1
f 17/28/1 4/29/1 1/30/1
f 16/31/1 25/3/1 17/28/1
f 15/32/1 26/1/1 16/31/1
f 14/33/1 27/4/1 15/32/1
f 25/3/1 5/34/1 4/29/1
f 29/2/1 6/35/1 5/34/1
f 33/8/1 7/36/1 6/35/1
f 18/37/1 11/38/1 3/39/1
f 19/40/1 35/11/1 18/37/1
f 20/41/1 36/9/1 19/40/1
f 21/42/1 37/12/1 20/41/1
f 35/11/1 12/43/1 11/38/1
f 39/10/1 13/44/1 12/43/1
f 43/16/1 14/33/1 13/44/1
f 10/45/1 24/46/1 2/47/1
f 9/48/1 45/19/1 10/45/1
f 8/49/1 46/17/1 9/48/1
f 7/36/1 47/20/1 8/49/1
f 45/19/1 23/50/1 24/46/1
f 49/18/1 22/51/1 23/50/1
f 53/24/1 21/42/1 22/51/1
f 80/52/2 83/53/2 79/54/2
f 81/55/2 84/56/2 80/52/2
f 82/57/2 85/58/2 81/55/2
f 84/56/2 87/59/2 83/53/2
f 90/60/2 93/61/2 89/62/2
f 91/63/2 94/64/2 90/60/2
f 92/65/2 95/66/2 91/63/2
f 94/64/2 97/67/2 93/61/2
f 100/68/2 103/69/2 99/70/2
f 101/71/2 104/72/2 100/68/2
f 102/73/2 105/74/2 101/71/2
f 104/72/2 107/75/2 103/69/2
f 98/76/2 82/57/2 97/67/2
f 108/77/2 92/65/2 107/75/2
f 88/78/2 102/73/2 87/59/2
f 78/79/2 65/80/2 55/81/2
f 77/82/2 79/54/2 78/79/2
f 76/83/2 80/52/2 77/82/2
f 75/84/2 81/55/2 76/83/2
f 79/54/2 66/85/2 65/80/2
f 83/53/2 67/86/2 66/85/2
f 87/59/2 68/87/2 67/86/2
f 58/88/2 72/89/2 56/90/2
f 59/91/2 89/62/2 58/88/2
f 60/92/2 90/60/2 59/91/2
f 61/93/2 91/63/2 60/92/2
f 89/62/2 73/94/2 72/89/2
f 93/61/2 74/95/2 73/94/2
f 97/67/2 75/84/2 74/95/2
f 71/96/2 64/97/2 57/98/2
f 70/99/2 99/70/2 71/96/2
f 69/100/2 100/68/2 70/99/2
f 68/87/2 101/71/2 69/100/2
f 99/70/2 63/101/2 64/97/2
f 103/69/2 62/102/2 63/101/2
f 107/75/2 61/93/2 62/102/2
f 134/103/3 137/104/3 133/105/3
f 135/106/3 138/107/3 134/103/3
f 136/108/3 139/109/3 135/106/3
f 138/107/3 141/110/3 137/104/3
f 144/111/3 147/112/3 143/113/3
f 145/114/3 148/115/3 144/111/3
f 146/116/3 149/117/3 145/114/3
f 148/115/3 151/118/3 147/112/3
f 154/119/3 157/120/3 153/121/3
f 155/122/3 158/123/3 154/119/3
f 156/124/3 159/125/3 155/122/3
f 158/123/3 161/126/3 157/120/3
f 152/127/3 136/108/3 151/118/3
f 162/128/3 146/116/3 161/126/3
f 142/129/3 156/124/3 141/110/3
f 118/130/3 126/131/3 111/132/3
f 117/133/3 133/105/3 118/130/3
f 116/134/3 134/103/3 117/133/3
f 115/135/3 135/106/3 116/134/3
f 133/105/3 127/136/3 126/131/3
f 137/104/3 128/137/3 127/136/3
f 141/110/3 129/138/3 128/137/3
f 119/139/3 112/140/3 110/141/3
f 120/142/3 143/113/3 119/139/3
f 121/143/3 144/111/3 120/142/3
f 122/144/3 145/114/3 121/143/3
f 143/113/3 113/145/3 112/140/3
f 147/112/3 114/146/3 113/145/3
f 151/118/3 115/135/3 114/146/3
f 132/147/3 125/148/3 109/149/3
f 131/150/3 153/121/3 132/147/3
f 130/151/3 154/119/3 131/150/3
f 129/138/3 155/122/3 130/151/3
f 153/121/3 124/152/3 125/148/3
f 157/120/3 123/153/3 124/152/3
f 161/126/3 122/144/3 123/153/3
f 170/154/3 174/155/3 166/156/3
f 182/157/4 186/158/4 178/159/4
f 194/160/1 198/161/1 190/162/1
f 206/163/2 210/164/2 202/165/2
f 236/166/4 239/167/4 235/168/4
f 237/169/4 240/170/4 236/166/4
f 238/171/4 241/172/4 237/169/4
f 240/170/4 243/173/4 239/167/4
f 246/174/4 249/175/4 245/176/4
f 247/177/4 250/178/4 246/174/4
f 248/179/4 251/180/4 247/177/4
f 250/178/4 253/181/4 249/175/4
f 256/182/4 259/183/4 255/184/4
f 257/185/4 260/186/4 256/182/4
f 258/187/4 261/188/4 257/185/4
f 260/186/4 263/189/4 259/183/4
f 254/190/4 238/171/4 253/181/4
f 264/191/4 248/179/4 263/189/4
f 244/192/4 258/187/4 243/173/4
f 214/193/4 234/194/4 211/195/4
f 215/196/4 235/168/4 214/193/4
f 216/197/4 236/166/4 215/196/4
f 217/198/4 237/169/4 216/197/4
f 235/168/4 233/199/4 234/194/4
f 239/167/4 232/200/4 233/199/4
f 243/173/4 231/201/4 232/200/4
f 221/202/4 220/203/4 212/204/4
f 222/205/4 245/176/4 221/202/4
f 223/206/4 246/174/4 222/205/4
f 224/207/4 247/177/4 223/206/4
f 245/176/4 219/208/4 220/203/4
f 249/175/4 218/209/4 219/208/4
f 253/181/4 217/198/4 218/209/4
f 228/210/4 227/211/4 213/212/4
f 229/213/4 255/184/4 228/210/4
f 230/214/4 256/182/4 229/213/4
f 231/201/4 257/185/4 230/214/4
f 255/184/4 226/215/4 227/211/4
f 259/183/4 225/216/4 226/215/4
f 263/189/4 224/207/4 225/216/4
f 26/1/1 30/5/1 29/2/1
f 27/4/1 31/7/1 30/5/1
f 28/6/1 32/217/1 31/7/1
f 30/5/1 34/27/1 33/8/1
f 36/9/1 40/13/1 39/10/1
f 37/12/1 41/15/1 40/13/1
f 38/14/1 42/218/1 41/15/1
f 40/13/1 44/25/1 43/16/1
f 46/17/1 50/21/1 49/18/1
f 47/20/1 51/23/1 50/21/1
f 48/22/1 52/219/1 51/23/1
f 50/21/1 54/26/1 53/24/1
f 44/25/1 32/217/1 28/6/1
f 54/26/1 42/218/1 38/14/1
f 34/27/1 52/219/1 48/22/1
f 17/28/1 25/3/1 4/29/1
f 16/31/1 26/1/1 25/3/1
f 15/32/1 27/4/1 26/1/1
f 14/33/1 28/6/1 27/4/1
f 25/3/1 29/2/1 5/34/1
f 29/2/1 33/8/1 6/35/1
f 33/8/1 48/22/1 7/36/1
f 18/37/1 35/11/1 11/38/1
f 19/40/1 36/9/1 35/11/1
f 20/41/1 37/12/1 36/9/1
f 21/42/1 38/14/1 37/12/1
f 35/11/1 39/10/1 12/43/1
f 39/10/1 43/16/1 13/44/1
f 43/16/1 28/6/1 14/33/1
f 10/45/1 45/19/1 24/46/1
f 9/48/1 46/17/1 45/19/1
f 8/49/1 47/20/1 46/17/1
f 7/36/1 48/22/1 47/20/1
f 45/19/1 49/18/1 23/50/1
f 49/18/1 53/24/1 22/51/1
f 53/24/1 38/14/1 21/42/1
f 80/52/2 84/56/2 83/53/2
f 81/55/2 85/58/2 84/56/2
f 82/57/2 86/220/2 85/58/2
f 84/56/2 88/78/2 87/59/2
f 90/60/2 94/64/2 93/61/2
f 91/63/2 95/66/2 94/64/2
f 92/65/2 96/221/2 95/66/2
f 94/64/2 98/76/2 97/67/2
f 100/68/2 104/72/2 103/69/2
f 101/71/2 105/74/2 104/72/2
f 102/73/2 106/222/2 105/74/2
f 104/72/2 108/77/2 107/75/2
f 98/76/2 86/220/2 82/57/2
f 108/77/2 96/221/2 92/65/2
f 88/78/2 106/222/2 102/73/2
f 78/79/2 79/54/2 65/80/2
f 77/82/2 80/52/2 79/54/2
f 76/83/2 81/55/2 80/52/2
f 75/84/2 82/57/2 81/55/2
f 79/54/2 83/53/2 66/85/2
f 83/53/2 87/59/2 67/86/2
f 87/59/2 102/73/2 68/87/2
f 58/88/2 89/62/2 72/89/2
f 59/91/2 90/60/2 89/62/2
f 60/92/2 91/63/2 90/60/2
f 61/93/2 92/65/2 91/63/2
f 89/62/2 93/61/2 73/94/2
f 93/61/2 97/67/2 74/95/2
f 97/67/2 82/57/2 75/84/2
f 71/96/2 99/70/2 64/97/2
f 70/99/2 100/68/2 99/70/2
f 69/100/2 101/71/2 100/68/2
f 68/87/2 102/73/2 101/71/2
f 99/70/2 103/69/2 63/101/2
f 103/69/2 107/75/2 62/102/2
f 107/75/2 92/65/2 61/93/2
f 134/103/3 138/107/3 137/104/3
f 135/106/3 139/109/3 138/107/3
f 136/108/3 140/223/3 139/109/3
f 138/107/3 142/129/3 141/110/3
f 144/111/3 148/115/3 147/112/3
f 145/114/3 149/117/3 148/115/3
f 146/116/3 150/224/3 149/117/3
f 148/115/3 152/127/3 151/118/3
f 154/119/3 158/123/3 157/120/3
f 155/122/3 159/125/3 158/123/3
f 156/124/3 160/225/3 159/125/3
f 158/123/3 162/128/3 161/126/3
f 152/127/3 140/223/3 136/108/3
f 162/128/3 150/224/3 146/116/3
f 142/129/3 160/225/3 156/124/3
f 118/130/3 133/105/3 126/131/3
f 117/133/3 134/103/3 133/105/3
f 116/134/3 135/106/3 134/103/3
f 115/135/3 136/108/3 135/106/3
f 133/105/3 137/104/3 127/136/3
f 137/104/3 141/110/3 128/137/3
f 141/110/3 156/124/3 129/138/3
f 119/139/3 143/113/3 112/140/3
f 120/142/3 144/111/3 143/113/3
f 121/143/3 145/114/3 144/111/3
f 122/144/3 146/116/3 145/114/3
f 143/113/3 147/112/3 113/145/3
f 147/112/3 151/118/3 114/146/3
f 151/118/3 136/108/3 115/135/3
f 132/147/3 153/121/3 125/148/3
f 131/150/3 154/119/3 153/121/3
f 130/151/3 155/122/3 154/119/3
f 129/138/3 156/124/3 155/122/3
f 153/121/3 157/120/3 124/152/3
f 157/120/3 161/126/3 123/153/3
f 161/126/3 146/116/3 122/144/3
f 166/156/3 163/226/3 164/227/3
f 164/227/3 165/228/3 170/154/3
f 170/154/3 167/229/3 168/230/3
f 168/230/3 169/231/3 174/155/3
f 174/155/3 171/232/3 172/233/3
f 172/233/3 173/234/3 166/156/3
f 166/156/3 164/227/3 170/154/3
f 170/154/3 168/230/3 174/155/3
f 174/155/3 172/233/3 166/156/3
f 178/159/4 175/235/4 176/236/4
f 176/236/4 177/237/4 182/157/4
f 182/157/4 179/238/4 180/239/4
f 180/239/4 181/240/4 186/158/4
f 186/158/4 183/241/4 184/242/4
f 184/242/4 185/243/4 178/159/4
f 178/159/4 176/236/4 182/157/4
f 182/157/4 180/239/4 186/158/4
f 186/158/4 184/242/4 178/159/4
f 190/162/1 187/244/1 188/245/1
f 188/245/1 189/246/1 194/160/1
f 194/160/1 191/247/1 192/248/1
f 192/248/1 193/249/1 198/161/1
f 198/161/1 195/250/1 196/251/1
f 196/251/1 197/252/1 190/162/1
f 190/162/1 188/245/1 194/160/1
f 194/160/1 192/248/1 198/161/1
f 198/161/1 196/251/1 190/162/1
f 202/165/2 199/253/2 200/254/2
f 200/254/2 201/255/2 206/163/2
f 206/163/2 203/256/2 204/257/2
f 204/257/2 205/258/2 210/164/2
f 210/164/2 207/259/2 208/260/2
f 208/260/2 209/261/2 202/165/2
f 202/165/2 200/254/2 206/163/2
f 206/163/2 204/257/2 210/164/2
f 210/164/2 208/260/2 202/165/2
f 236/166/4 240/170/4 239/167/4
f 237/169/4 241/172/4 240/170/4
f 238/171/4 242/262/4 241/172/4
f 240/170/4 244/192/4 243/173/4
f 246/174/4 250/178/4 249/175/4
f 247/177/4 251/180/4 250/178/4
f 248/179/4 252/263/4 251/180/4
f 250/178/4 254/190/4 253/181/4
f 256/182/4 260/186/4 259/183/4
f 257/185/4 261/188/4 260/186/4
f 258/187/4 262/264/4 261/188/4
f 260/186/4 264/191/4 263/189/4
f 254/190/4 242/262/4 238/171/4
f 264/191/4 252/263/4 248/179/4
f 244/192/4 262/264/4 258/187/4
f 214/193/4 235/168/4 234/194/4
f 215/196/4 236/166/4 235/168/4
f 216/197/4 237/169/4 236/166/4
f 217/198/4 238/171/4 237/169/4
f 235/168/4 239/167/4 233/199/4
f 239/167/4 243/173/4 232/200/4
f 243/173/4 258/187/4 231/201/4
f 221/202/4 245/176/4 220/203/4
f 222/205/4 246/174/4 245/176/4
f 223/206/4 247/177/4 246/174/4
f 224/207/4 248/179/4 247/177/4
f 245/176/4 249/175/4 219/208/4
f 249/175/4 253/181/4 218/209/4
f 253/181/4 238/171/4 217/198/4
f 228/210/4 255/184/4 227/211/4
f 229/213/4 256/182/4 255/184/4
f 230/214/4 257/185/4 256/182/4
f 231/201/4 258/187/4 257/185/4
f 255/184/4 259/183/4 226/215/4
f 259/183/4 263/189/4 225/216/4
f 263/189/4 248/179/4 224/207/4
